<svg width="64" height="64" viewBox="0 0 64 64" fill="none" xmlns="http://www.w3.org/2000/svg" role="img" aria-label="CarolinaPOS">
  <rect width="64" height="64" rx="15" fill="#1e3a8a"></rect>
  <rect x="0.6" y="0.6" width="62.8" height="62.8" rx="14.4" stroke="#ffffff" stroke-opacity="0.10" stroke-width="1.2"></rect>
  <g fill="#ffffff">
    <rect x="16" y="17" width="2.6" height="30" rx="0.6"></rect>
    <rect x="20.2" y="17" width="1.5" height="30" rx="0.6"></rect>
    <rect x="23.3" y="17" width="3.6" height="30" rx="0.6"></rect>
    <rect x="28.5" y="17" width="1.5" height="30" rx="0.6"></rect>
    <rect x="31.6" y="17" width="2.6" height="30" rx="0.6"></rect>
    <rect x="35.8" y="17" width="1.5" height="30" rx="0.6"></rect>
    <rect x="38.9" y="17" width="3.1" height="30" rx="0.6"></rect>
    <rect x="43.6" y="17" width="1.5" height="30" rx="0.6"></rect>
    <rect x="46.7" y="17" width="1.3" height="30" rx="0.6"></rect>
  </g>
  <rect x="14" y="30.7" width="36" height="2.6" rx="1.3" fill="#4f74e0"></rect>
</svg>